<?xml version="1.0" encoding="utf-8"?>
<!-- Generator: Adobe Illustrator 23.0.1, SVG Export Plug-In . SVG Version: 6.00 Build 0)  -->
<svg version="1.1" id="Слой_1" xmlns="http://www.w3.org/2000/svg" xmlns:xlink="http://www.w3.org/1999/xlink" x="0px" y="0px"
	 viewBox="0 0 575.9 262.3" style="enable-background:new 0 0 575.9 262.3;" xml:space="preserve">
<style type="text/css">
	.st0{fill:#FFFFFF;}
	.st1{fill:#7DBF29;}
</style>
<path class="st0" d="M0.1,59.1c-0.8-11.7,8-21.9,19.7-22.7l231.9-16.2c5.6-0.4,10.2,3.8,13,8.6c3.7,6.4,10,10.5,16.9,10
	c6.8-0.5,12.5-5.4,15.3-12.3c2.1-5.2,6.1-9.9,11.7-10.3L540.4,0.1c11.7-0.8,21.9,8,22.7,19.7l12.8,183.4c0.8,11.7-8,21.9-19.7,22.7
	l-231.9,16.2c-5.6,0.4-10.2-3.8-13-8.6c-3.7-6.4-10-10.5-16.9-10c-6.8,0.5-12.5,5.4-15.3,12.3c-2.1,5.2-6.1,9.9-11.7,10.3
	L35.6,262.3c-11.7,0.8-21.9-8-22.7-19.7L0.1,59.1z"/>
<path class="st1" d="M57.1,150.5v-14.3h31.2v-34.1h14.8v34.1h31.1v14.3h-31.1v34H88.4v-34H57.1z M144.2,172.3l9.6-14
	c6.2,6.8,13.5,10.2,21.7,10.2c5.2,0,9.6-1.6,13.4-4.8c3.8-3.3,5.8-7.5,5.8-12.7c0-5.3-1.9-9.6-5.8-12.8c-3.8-3.3-8.7-4.9-14.7-4.9
	c-5.7,0-10.9,1.4-15.8,4.3l-10.4-3.7l4.8-51.8h53.9v16H169l-1.6,16.8l-0.7,4.8h0.3c2.9-1.5,6.5-2.3,10.9-2.3
	c10.9,0,19.7,3.2,26.2,9.6c6.5,6.4,9.8,14.4,9.8,23.9c0,10.1-3.5,18.5-10.5,25.2c-7,6.6-15.8,9.9-26.4,9.9c-6.2,0-12.2-1.2-18-3.6
	C153.3,180.2,148.4,176.8,144.2,172.3z M282.7,182.1c-4.9,2.7-10.7,4-17.4,4s-12.6-1.3-17.6-4c-4.9-2.7-8.7-6.5-11.5-11.5
	c-2.8-5-4.8-10.6-6.2-16.7c-1.2-6.1-1.9-13.1-1.9-20.7s0.6-14.6,1.9-20.7c1.3-6.1,3.4-11.7,6.2-16.6c2.8-4.9,6.6-8.7,11.5-11.4
	c4.9-2.7,10.8-4,17.6-4c24.7,0,37,17.6,37,52.7c0,7.7-0.7,14.6-2,20.7c-1.2,6.1-3.3,11.7-6,16.7
	C291.5,175.6,287.7,179.4,282.7,182.1z M247.2,133.2c0,24,6,36,18,36c12,0,18-12,18-36c0-23.7-6-35.6-18-35.6
	C253.2,97.6,247.2,109.5,247.2,133.2z M373.1,182.1c-4.9,2.7-10.7,4-17.4,4s-12.6-1.3-17.6-4c-4.9-2.7-8.7-6.5-11.5-11.5
	c-2.8-5-4.8-10.6-6.2-16.7c-1.2-6.1-1.9-13.1-1.9-20.7s0.6-14.6,1.9-20.7c1.3-6.1,3.4-11.7,6.2-16.6c2.8-4.9,6.6-8.7,11.5-11.4
	c4.9-2.7,10.8-4,17.6-4c24.7,0,37,17.6,37,52.7c0,7.7-0.7,14.6-2,20.7c-1.2,6.1-3.3,11.7-6,16.7
	C381.9,175.6,378.1,179.4,373.1,182.1z M337.7,133.2c0,24,6,36,18,36s18-12,18-36c0-23.7-6-35.6-18-35.6S337.7,109.5,337.7,133.2z
	 M449.8,184.4V169h-11.5v-14h11.5v-11.2h-11.5V126h11.5V81.6h32.8c13.2,0,22.9,2.7,28.9,8.1c6.1,5.4,9.2,12.8,9.2,22.2
	c0,5.6-1.2,10.8-3.7,15.7c-2.5,4.9-6.7,8.8-12.5,11.8c-5.8,3-13.6,4.5-23.6,4.5h-9.4v11.2h22.2v14h-22.2v15.4H449.8z M471.6,126h7.2
	c6.1,0,11-1.1,14.5-3.2c3.6-2.1,5.5-5.5,5.5-10.2c0-8.7-5.8-13.1-17.3-13.1h-9.9V126z"/>
</svg>
