<svg width="501" height="182" viewBox="0 0 501 182" fill="none" xmlns="http://www.w3.org/2000/svg">
<path d="M55.3799 182V160.638L74.4229 156.976V139.52H1.91309L0.204102 122.063L74.0566 4.26563L109.945 4.26562V115.838H130.087V139.52H109.945V156.976L128.866 160.638V182H55.3799ZM33.4072 115.838H74.4229V51.751L73.6904 51.5068L70.7607 56.6338L33.4072 115.838Z" fill="#7DBF29"/>
<path d="M425.38 182V160.638L444.423 156.976V139.52H371.913L370.204 122.063L444.057 4.26563L479.945 4.26562V115.838H500.087V139.52H479.945V156.976L498.866 160.638V182H425.38ZM403.407 115.838H444.423V51.751L443.69 51.5068L440.761 56.6338L403.407 115.838Z" fill="#7DBF29"/>
<mask id="mask0" mask-type="alpha" maskUnits="userSpaceOnUse" x="170" y="0" width="160" height="173">
<path d="M252.602 3.1837C266.955 9.35495 282.152 15.5262 295.661 24.3423C309.17 33.1583 320.99 46.3825 326.056 62.2514C332.81 83.41 327.745 107.213 318.457 126.609C311.703 141.596 301.571 156.583 287.218 164.518C271.176 173.334 252.602 174.215 234.871 171.571C218.829 169.807 201.099 164.518 190.123 152.175C180.836 140.714 177.459 125.727 174.081 110.74C171.548 99.2789 169.86 86.9364 171.548 74.5939C174.081 62.2514 179.991 51.6721 186.746 41.9744C193.5 30.5135 201.099 19.9342 211.231 11.1182C221.362 2.30209 234.871 -2.10594 246.691 1.42049" fill="white"/>
</mask>
<g mask="url(#mask0)">
<path d="M232.507 -40.9072C235.453 -40.9072 301.854 -29.8608 334.687 -24.3377L356.779 144.12C285.591 144.733 142.664 145.592 140.454 144.12C137.693 142.279 127.567 59.4307 131.249 47.4638C134.931 35.4969 228.825 -40.9072 232.507 -40.9072Z" fill="#B7DEFF"/>
<path d="M157.943 128.471C226.431 81.3396 308.603 108.833 341.129 128.471C325.48 155.166 293.814 208.925 292.341 210.398C290.5 212.239 72.3336 187.385 157.943 128.471Z" fill="#7DBF29"/>
</g>
<path d="M319.469 86.447C331.286 81.6051 341.713 73.9963 349.359 63.6207C351.444 60.8538 354.224 56.7036 354.224 53.9368C354.224 47.7114 347.273 44.9446 341.713 42.1777C327.81 36.6441 310.433 39.4109 298.616 49.0948C295.836 47.7114 293.055 46.328 290.275 45.6363C294.446 39.4109 296.531 31.8021 296.531 24.1934C294.446 30.4187 289.58 33.8773 284.019 36.6441C257.605 49.0948 224.24 46.328 201.302 28.3436C201.302 36.6441 204.777 44.2529 210.338 50.4782C204.777 51.8616 198.521 48.4031 192.96 46.328C177.668 40.7943 159.595 44.9446 147.084 56.0119C147.084 56.0119 141.523 81.6051 184.619 85.7553C186.009 85.7553 187.4 85.7553 188.095 85.7553C189.485 86.447 189.485 87.8304 190.18 89.2138L207.558 145.934C204.082 151.467 201.997 159.768 204.082 165.993C206.167 172.219 212.423 174.986 218.679 177.061C222.155 177.752 225.63 178.444 229.106 178.444C247.178 179.136 265.251 179.136 282.629 177.061C285.409 177.061 287.494 176.369 289.58 174.294C290.97 172.91 293.055 171.527 294.446 169.452C295.141 168.068 295.836 165.993 296.531 163.918C298.616 160.46 298.616 157.001 297.226 153.543C296.531 151.467 294.446 149.392 293.75 146.626C293.055 143.859 293.75 141.784 294.446 139.017C300.006 121.032 309.043 105.815 311.823 87.1387" fill="white"/>
<path d="M320.862 89.2148C332.678 84.3728 368.129 62.2382 353.531 45.6372C347.971 39.4119 336.154 36.645 328.508 35.9533C316.691 35.2616 300.704 46.3289 290.972 42.1787C291.667 43.5621 291.667 45.6372 292.362 47.0206C296.533 39.4119 298.618 32.4948 298.618 24.1943C298.618 20.0441 293.057 20.0441 291.667 23.5026C285.411 38.7202 259.693 40.7953 245.79 40.7953C229.803 40.1036 215.206 34.5699 201.999 24.886C201.304 23.5026 197.828 25.5777 197.828 28.3446C199.219 37.3367 201.999 44.9455 208.255 52.5543C208.95 50.4792 209.645 48.4041 210.34 46.3289C197.133 47.7124 186.012 39.4119 172.805 40.7953C165.158 41.487 149.171 45.6372 145 53.246C142.22 58.7797 144.305 65.6967 147.086 70.5387C149.866 76.0723 155.427 79.5309 160.988 82.2977C167.939 85.7562 179.756 84.3728 185.316 88.5231C193.658 94.7484 196.438 117.575 199.219 127.259C200.609 132.101 204.779 139.709 204.779 145.243C204.779 150.085 199.914 156.31 200.609 162.536C204.084 184.67 233.974 181.212 249.961 181.212C268.034 181.212 293.753 184.67 300.704 163.919C304.179 152.852 297.923 145.243 300.704 133.484C304.874 117.575 313.215 103.741 315.996 87.8314C316.691 83.6811 310.435 81.606 309.045 85.7562C306.96 96.8236 303.484 107.199 299.313 117.575C296.533 125.184 290.972 134.176 290.972 142.476C290.277 150.777 297.228 158.385 291.667 166.686C284.716 177.062 261.083 174.295 249.961 174.295C231.888 174.295 207.56 177.753 209.645 150.085C209.645 146.626 211.73 145.935 211.035 143.168C210.34 134.867 205.474 123.8 202.694 116.191C199.914 107.199 197.828 97.5153 194.353 89.2148C189.487 78.8392 181.841 82.9894 170.719 79.5309C163.768 77.4558 146.391 68.4636 150.561 57.3963C153.342 49.7875 171.414 47.0206 178.365 47.0206C189.487 47.0206 198.523 53.9377 210.34 52.5543C213.816 52.5543 214.511 49.0958 213.121 46.3289C207.56 42.1787 205.474 35.2616 204.779 28.3446C203.389 29.0363 201.304 29.728 199.914 31.1114C217.291 43.5621 238.144 49.7875 259.693 47.0206C274.29 45.6372 293.057 40.1036 299.313 25.5777C297.228 25.5777 294.448 24.886 292.362 24.886C292.362 31.8031 290.972 38.7202 286.802 44.2538C286.106 45.6372 286.106 48.4041 288.192 49.0958C291.667 50.4792 295.838 53.246 299.313 53.246C301.399 53.246 306.264 49.0958 308.35 47.7123C314.606 44.9455 319.471 43.5621 326.422 43.5621C338.934 43.5621 352.836 49.0958 345.885 62.9299C341.02 72.6138 327.813 79.5309 318.081 83.6811C313.215 85.0645 316.691 91.2899 320.862 89.2148Z" fill="#3D332D"/>
<path d="M231.892 138.33C226.331 138.33 219.38 143.864 217.99 149.397C216.599 154.931 217.294 160.465 221.465 163.923C225.636 167.382 233.282 169.457 238.843 169.457C250.659 169.457 262.476 168.765 274.293 167.382C276.378 167.382 279.159 166.69 281.244 165.307C283.329 163.923 284.024 162.54 284.024 159.773C284.024 157.698 284.719 154.931 284.024 152.856C283.329 150.781 283.329 148.014 282.634 145.939C280.549 141.097 274.988 139.713 270.122 139.713C257.61 138.33 245.099 137.638 231.892 138.33Z" fill="#FF7A2C"/>
<path d="M232.586 148.705C231.891 152.856 232.586 157.006 234.672 161.156C236.757 164.615 243.013 161.156 240.927 157.698C239.537 155.623 238.842 152.856 239.537 150.781C240.232 145.939 233.281 143.864 232.586 148.705Z" fill="#3D332D"/>
<path d="M266.643 149.393C267.338 154.235 266.643 157.694 263.862 161.844C261.082 165.302 255.521 161.844 257.607 158.385C258.997 156.31 260.387 154.235 259.692 151.468C258.997 146.626 265.948 145.243 266.643 149.393Z" fill="#3D332D"/>
<path fill-rule="evenodd" clip-rule="evenodd" d="M231.192 134.873C219.375 136.948 209.644 149.399 215.9 161.849C223.826 177.018 248.333 174.091 264.086 172.209C266.291 171.946 268.325 171.703 270.118 171.533C270.816 171.446 271.558 171.37 272.328 171.292C277.686 170.743 284.369 170.059 286.8 164.616C289.581 159.774 288.19 149.399 285.41 145.248C282.722 139.898 276.785 138.428 271.369 137.086L270.813 136.948C258.88 134.969 246.315 134.877 233.721 135.473C233.034 134.967 232.171 134.71 231.192 134.873ZM232.582 142.481C232.648 142.463 232.713 142.443 232.777 142.422C241.847 141.852 250.346 142.458 259.413 143.104L260.386 143.173C261.641 143.381 263.274 143.464 265.038 143.554C269.136 143.762 273.944 144.006 276.374 145.94C281.239 150.09 281.934 159.774 277.069 163.924C273.038 167.362 258.037 167.003 248.66 166.778C246.717 166.732 245.016 166.691 243.704 166.691C242.902 166.691 242.082 166.71 241.252 166.729C237.044 166.825 232.59 166.927 229.107 164.616C217.29 157.699 220.07 144.557 232.582 142.481Z" fill="#3D332D"/>
<path fill-rule="evenodd" clip-rule="evenodd" d="M309.741 60.1667C311.131 59.8208 312.695 59.6479 314.259 59.475C315.823 59.3021 317.387 59.1291 318.777 58.7833C318.92 58.7833 319.358 58.7539 319.964 58.7134C322.298 58.557 327.118 58.2341 327.118 58.7833C327.118 58.7833 322.253 62.2418 321.557 62.2418C318.777 63.6252 315.997 65.0086 313.216 65.7003C309.046 67.0838 311.131 74.0008 315.302 72.6174C321.557 70.5423 336.155 65.0086 334.069 56.7082C332.679 52.5579 328.508 51.8662 325.033 51.8662C319.472 51.8662 313.911 51.8662 308.351 53.2496C303.485 54.633 305.57 61.5501 309.741 60.1667ZM280.547 113.426C282.632 97.5167 295.144 87.8328 309.741 81.6074C312.296 80.3359 313.808 82.4406 313.796 84.7387C313.964 85.2531 314.016 85.828 313.912 86.4493C313.674 88.34 313.518 90.3114 313.359 92.3083V92.3085C313.054 96.1563 312.741 100.099 311.826 103.742C311.131 105.125 310.262 106.509 309.393 107.892C308.524 109.276 307.656 110.659 306.96 112.043C304.528 116.539 303.485 121.726 302.442 126.914L302.442 126.914L302.442 126.914C301.4 132.102 300.357 137.29 297.924 141.786C297.229 142.478 296.534 143.169 295.144 143.169C280.547 143.169 279.156 123.802 280.547 113.426ZM233.237 85.2462C233.251 85.1854 233.266 85.1249 233.281 85.0647C233.954 82.7215 235.766 81.9982 237.536 82.3461C239.097 82.0121 240.562 82.7901 241.622 84.373C242.69 85.9665 242.528 88.376 242.395 90.3482V90.3483V90.3484V90.3485V90.3485C242.355 90.9444 242.317 91.5003 242.317 91.9817C242.317 94.7486 242.317 97.5154 240.927 99.5905C238.842 101.666 236.756 101.666 234.671 100.282C233.304 99.3752 232.833 97.8733 232.671 96.3617C232.641 96.2874 232.612 96.2108 232.586 96.132C231.006 92.9886 231.022 88.2581 233.237 85.2462ZM255.523 98.21C254.828 92.6763 256.218 87.1427 260.389 84.3759C262.13 82.9891 263.872 83.8612 264.652 85.4245C264.858 85.5183 265.059 85.6297 265.254 85.7593C270.12 88.5261 269.425 96.8266 266.645 100.977C263.169 105.819 256.218 104.435 255.523 98.21ZM190.018 69.729C190.311 69.7696 190.598 69.8095 190.879 69.8494C195.744 70.5411 193.659 77.4582 188.793 76.0747C180.452 74.6913 169.331 71.9245 167.94 61.5489C166.701 51.068 179.82 54.3249 187.116 56.1363C188.005 56.3572 188.809 56.5566 189.489 56.7069C193.659 57.3986 192.269 64.3157 188.098 63.624C185.318 63.624 181.842 62.9323 179.062 62.2406C178.503 62.2406 176.147 61.7936 175.245 61.6182C175.657 62.0751 176.282 63.1604 176.282 63.624C178.902 68.1868 185.225 69.0641 190.018 69.729Z" fill="#3D332D"/>
</svg>
