<svg width="36" height="54" viewBox="0 0 36 54" fill="none" xmlns="http://www.w3.org/2000/svg">
<path fill-rule="evenodd" clip-rule="evenodd" d="M11.1344 10.2743C10.9058 11.1797 10.7025 12.0075 10.4739 12.9647C11.0836 13.2234 11.6426 13.4821 12.1761 13.7149C13.2431 14.1806 14.234 14.6721 14.8183 15.8362C15.3264 16.9227 15.2502 18.0351 14.8945 19.1217C14.7167 19.7167 14.3356 20.2082 13.9799 20.7256C12.9637 22.3295 11.4139 22.8727 9.61006 23.0021C8.08569 23.1056 6.61214 22.9504 5.13858 22.5882C4.32558 22.3812 3.5888 22.0967 3.02987 21.3723C2.39471 20.5704 1.68334 19.7943 0.997376 18.9923C-0.196713 17.5177 -0.145901 15.8104 0.260597 14.103C0.565471 12.8095 0.946564 11.4901 1.48009 10.2743C2.06444 8.95492 2.47093 7.45448 3.94449 6.6784C4.32558 6.49731 4.57965 6.03166 4.85911 5.64362C5.82455 4.24666 7.32351 3.7034 8.72085 3.05666C8.82247 3.00492 8.97491 3.05666 9.02572 3.00492C10.1182 1.63383 11.7188 1.50449 13.2431 1.09057C14.0053 0.883617 14.7167 0.262747 15.5805 0.67666C16.2157 0.0299214 17.0795 0.0299212 17.8671 0.0040516C18.9595 -0.0218181 20.0774 0.0816605 21.1699 0.159269C21.8558 0.236878 22.5672 0.495573 23.2786 0.599052C25.4889 0.935356 27.1657 2.28057 28.7409 3.67753C30.5701 5.28144 32.1453 7.09231 33.5935 9.08427C34.2286 9.93796 34.8384 10.8175 35.3211 11.7747C35.8546 12.7836 36.1087 13.9219 35.9562 15.1119C35.8038 16.2501 35.7784 17.4143 35.6006 18.5784C35.1432 21.6827 34.5589 24.7095 32.247 27.1153C31.1545 28.2277 30.062 29.3919 28.7409 30.168C27.3944 30.9699 25.8192 31.4873 24.3202 31.9788C23.1515 32.341 21.8812 32.4445 20.6871 32.6773C20.4331 32.729 20.2044 32.7549 19.925 32.7808C19.5185 32.8325 18.9595 32.729 18.7309 32.9619C18.3244 33.4275 18.0195 34.0484 17.7908 34.6434C17.6384 35.0573 17.8417 35.6264 17.2573 35.8593C17.2065 35.8593 17.2065 36.0662 17.1811 36.1438C17.0795 37.1786 17.0541 38.2393 16.9016 39.274C16.673 40.5417 16.3427 41.8093 16.0632 43.0769C15.86 43.8012 15.2248 43.8788 14.6659 43.8271C13.3194 43.646 11.9982 43.3356 10.6517 43.1545C9.94034 43.051 9.43222 42.6888 9.20356 42.0421C9.02572 41.5506 8.84788 41.0073 8.89869 40.4899C9.07653 38.4462 9.33059 36.4284 9.58465 34.4106C9.71169 33.4017 9.86413 32.4186 9.99116 31.4097C10.0166 31.2803 10.0166 31.1251 9.99115 30.9958C9.50844 29.0038 9.86412 27.1412 11.2361 25.6408C11.8458 24.9682 12.6842 24.6836 13.7259 24.606C15.3773 24.4249 17.1049 24.8906 18.7055 24.0886C19.6455 23.6488 20.7634 23.5971 21.7542 23.209C22.6942 22.821 23.7613 22.614 24.1678 21.3206C24.3456 20.7256 25.1332 20.441 25.3365 19.7167C25.9462 17.8023 26.2765 15.9138 25.8446 13.9736C25.4381 12.111 24.4219 10.5071 23.1007 9.26535C22.2369 8.43753 20.9158 8.07535 19.7217 7.63557C17.7654 6.93709 15.8346 7.45448 13.9545 7.97188C13.3702 8.15296 12.8875 8.7997 12.3793 9.21361C12.0491 9.6534 11.795 10.3777 11.1344 10.2743ZM12.0745 31.3062C12.0236 31.5649 12.0491 31.746 11.9728 31.9271C11.5663 32.8584 11.4647 33.8414 11.3885 34.8503C11.2869 35.8334 11.2869 36.8164 11.2106 37.7736C11.109 38.8601 10.9566 39.9467 10.9058 41.0332C10.855 41.9127 11.1852 42.249 12.1253 42.3266C12.6842 42.3784 13.2685 42.4043 13.8529 42.4819C14.488 42.5595 14.8183 42.3266 14.8945 41.6799C14.9454 41.3177 15.047 40.9038 15.0978 40.5416C15.2248 39.7397 15.2502 38.886 15.5043 38.1617C16.0378 36.7906 16.3427 35.3419 16.5459 33.9449C16.7238 32.936 17.0033 32.1858 17.6384 31.4356C17.8925 31.1251 18.0703 31.0475 18.4006 31.0217C19.7725 30.9699 21.1191 30.9958 22.4656 30.8147C24.8284 30.4784 26.9371 29.5212 28.8679 28.0725C29.3252 27.7103 29.8334 27.3482 30.2907 26.986C30.6464 26.6756 31.002 26.3651 31.3069 26.003C31.7134 25.4856 32.0691 24.9164 32.4502 24.3214C32.6534 24.011 32.8567 23.7006 32.9329 23.3643C33.2632 21.9932 33.5427 20.6221 33.7967 19.2251C34.1778 17.078 34.1524 14.9308 33.7459 12.8095C33.5935 11.9817 33.1108 11.1797 32.628 10.4812C31.7642 9.29122 30.9004 8.10122 29.935 6.96296C28.3598 5.15209 26.5814 3.65166 24.5235 2.53927C23.8375 2.15123 23.0245 1.99601 22.2623 1.84079C21.2715 1.6597 20.2552 1.60796 19.2644 1.47862C18.0703 1.29753 16.8762 1.21992 15.7329 1.6597C13.7259 2.40992 11.7696 3.31536 9.78791 4.0397C8.84788 4.37601 8.13651 5.10036 7.22189 5.46253C6.53592 5.74709 6.15483 6.23862 5.77374 6.83362C5.41805 7.40275 5.06236 8.02361 4.68127 8.56688C3.23312 10.4554 2.44553 12.6025 2.01362 14.9567C1.68334 16.6382 2.26768 17.9575 3.20771 19.1217C3.63962 19.0441 3.9953 18.9923 4.35099 18.8888C3.79205 19.3545 4.19855 19.8201 4.19855 20.234C4.50343 20.3375 4.8083 20.3375 4.93533 20.5186C5.77373 21.5275 6.91701 21.3982 8.03488 21.5017C8.74625 21.5534 9.45763 21.6569 10.169 21.6051C10.5501 21.5793 10.9312 21.3464 11.2361 21.0877C12.1507 20.3117 12.3031 19.1734 12.5064 18.0351C12.735 16.6123 12.0745 15.3706 10.7533 14.9049C9.25438 14.3617 8.82247 13.0423 9.356 11.723C9.48303 11.4384 9.53385 11.128 9.61006 10.8434C9.99116 9.57579 10.7025 8.48927 11.8204 7.8684C12.8875 7.29927 14.0307 6.85949 15.1486 6.49731C15.9108 6.23862 16.7492 6.05753 17.5368 6.0834C19.0612 6.13514 20.5601 6.52318 22.0337 7.04057C25.4381 8.28231 26.8863 11.1021 27.8009 14.2582C28.436 16.4054 27.8009 18.656 26.9117 20.6997C26.5052 21.6827 25.7176 22.5364 25.0062 23.3643C24.5743 23.8558 23.9899 24.2956 23.3802 24.5543C22.5418 24.9423 21.6272 25.201 20.738 25.4338C19.7471 25.6667 18.7309 25.9254 17.74 26.003C16.2411 26.1323 14.7421 26.1064 13.2431 26.2358C13.0145 26.2617 12.735 26.4427 12.5826 26.6497C11.5155 27.8397 11.4647 30.2197 11.7696 31.6684C11.8204 31.5649 11.922 31.4614 12.0745 31.3062Z" fill="#5B6B09"/>
<path fill-rule="evenodd" clip-rule="evenodd" d="M13.0407 46.3091C13.7013 46.4643 14.3618 46.6195 15.0224 46.8265C15.5559 47.0075 15.7592 47.3697 15.8862 48.0165C16.2165 49.491 15.7846 50.9139 15.7592 52.3367C15.7338 53.3973 14.9208 54.1734 13.9045 53.9665C12.2277 53.6043 10.4239 53.5267 9.05196 52.3367C8.36599 51.7417 7.90868 50.9139 7.34974 50.1895C7.75624 48.8443 7.95949 47.3956 8.59464 46.1797C9.00114 45.4036 10.1952 45.7917 11.0336 45.8693C11.6942 45.921 12.3548 46.1797 13.0153 46.3349C13.0407 46.3608 13.0153 46.3349 13.0407 46.3091ZM13.8537 52.466C13.9807 51.0432 14.0824 49.8015 14.2094 48.5339C14.2856 47.8354 13.8791 47.5249 13.3202 47.6284C12.2785 47.8095 11.2877 47.6802 10.2715 47.4732C10.1952 47.4473 10.0682 47.5249 9.96658 47.5767C9.73792 48.1717 9.53467 48.7408 9.35683 49.3358C9.15358 50.0602 9.40764 50.5258 9.96658 51.0432C11.0082 52.0004 12.3039 52.078 13.8537 52.466Z" fill="#5B6B09"/>
</svg>
